# Blender 3.6.0
# www.blender.org
mtllib sarcofago.mtl
o defaultMaterial.002
v 0.198669 1.045034 -0.942604
v -0.138281 1.045034 -1.108240
v -0.134008 1.045034 -1.067246
v 0.172863 1.045034 -0.919954
v -0.261518 1.045034 -0.538651
v -0.382087 1.045034 -0.894226
v -0.382139 0.720276 -0.894181
v -0.261516 0.720276 -0.538640
v 0.198680 0.720276 -0.942601
v -0.138229 0.720276 -1.108285
v 0.644138 1.045034 -0.216841
v 0.602913 1.045034 -0.224025
v 0.398610 1.045034 -0.044687
v 0.400391 1.045034 -0.002879
v -0.341993 1.045034 -0.884676
v -0.235715 1.045034 -0.561304
v -0.235714 0.775866 -0.561302
v -0.342001 0.775866 -0.884669
v -0.134000 0.775866 -1.067253
v -0.134008 1.045034 -1.067246
v 0.398610 1.045034 -0.044687
v -0.235715 1.045034 -0.561304
v -0.235715 1.045034 -0.561304
v -0.341993 1.045034 -0.884676
v 0.172865 0.775866 -0.919953
v -0.235714 0.775866 -0.561302
v 0.398601 0.775867 -0.044679
v 0.602923 0.775867 -0.224032
v -0.342001 0.775866 -0.884669
v -0.134000 0.775866 -1.067253
v 0.400331 0.720276 -0.002827
v 0.644198 0.720276 -0.216893
v 0.644138 1.045034 -0.216841
v 0.644198 0.720276 -0.216893
v -0.261516 0.720276 -0.538640
v 0.198680 0.720276 -0.942601
v 0.644198 0.720276 -0.216893
v 0.400331 0.720276 -0.002827
v 0.602923 0.775867 -0.224032
v 0.398601 0.775867 -0.044679
v 0.398610 1.045034 -0.044687
v 0.602913 1.045034 -0.224025
v -0.341993 1.045034 -0.884676
v -0.134008 1.045034 -1.067246
v 0.172863 1.045034 -0.919954
v 0.602913 1.045034 -0.224025
v 0.172863 1.045034 -0.919954
v 0.172865 0.775866 -0.919953
v 0.602913 1.045034 -0.224025
v 0.602923 0.775867 -0.224032
v -0.382139 0.720276 -0.894181
v -0.138229 0.720276 -1.108285
v 0.655246 1.045034 -0.408612
v -0.073740 1.045034 -0.847376
v -0.073740 1.086727 -0.847376
v 0.655246 1.086727 -0.408612
v -0.572144 1.045034 -0.531589
v -0.301213 1.045034 -0.274802
v -0.301213 1.086727 -0.274802
v -0.572144 1.086727 -0.531589
v 0.530128 1.086727 -0.093677
v -0.447027 1.086727 -0.846524
v -0.301213 1.045034 -0.274802
v 0.530128 1.045034 -0.093677
v -0.447027 1.045034 -0.846524
v -0.572144 1.045034 -0.531589
v 0.530128 1.045034 -0.093677
v 0.655246 1.045034 -0.408612
v -0.073740 1.045034 -0.847376
v -0.447027 1.045034 -0.846524
v -0.301213 1.045034 -0.274802
v -0.572144 1.045034 -0.531589
v -0.447027 1.045034 -0.846524
v -0.073740 1.045034 -0.847376
v 0.655246 1.045034 -0.408612
v 0.530128 1.045034 -0.093677
v 0.342001 1.114522 -0.597148
v 0.172902 1.114522 -0.171506
v 0.256250 1.114522 -0.153347
v 0.415087 1.114522 -0.553159
v -0.073740 1.086727 -0.847376
v -0.000939 1.086727 -0.803558
v -0.218189 1.086727 -0.256713
v -0.301213 1.086727 -0.274802
v -0.073740 1.114522 -0.847376
v -0.301213 1.114522 -0.274802
v -0.218189 1.114522 -0.256713
v -0.000939 1.114522 -0.803558
v 0.342001 1.086727 -0.597148
v 0.415087 1.086727 -0.553159
v 0.256250 1.086727 -0.153347
v 0.172902 1.086727 -0.171506
v -0.218189 1.086727 -0.256713
v -0.000939 1.086727 -0.803558
v -0.000939 1.086727 -0.803558
v -0.073740 1.086727 -0.847376
v -0.301213 1.086727 -0.274802
v -0.218189 1.086727 -0.256713
v 0.256250 1.086727 -0.153347
v 0.415087 1.086727 -0.553159
v 0.415087 1.086727 -0.553159
v 0.342001 1.086727 -0.597148
v 0.172902 1.086727 -0.171506
v 0.256250 1.086727 -0.153347
v 0.340765 0.720276 -0.051050
v 0.340819 1.045034 -0.051098
v 0.400391 1.045034 -0.002879
v 0.400331 0.720276 -0.002827
v -0.261516 0.720276 -0.538640
v -0.261518 1.045034 -0.538651
v -0.195328 1.045034 -0.485074
v -0.195331 0.720276 -0.485058
v 0.323277 0.720280 -0.029446
v 0.382843 0.720280 0.018777
v 0.382903 1.045038 0.018725
v 0.323331 1.045038 -0.029495
v -0.279004 0.720280 -0.517036
v -0.212820 0.720280 -0.463454
v -0.212816 1.045038 -0.463470
v -0.279007 1.045038 -0.517047
v -0.195328 1.045034 -0.485074
v -0.261518 1.045034 -0.538651
v 0.340819 1.045034 -0.051098
v 0.340765 0.720276 -0.051050
v -0.261518 1.045034 -0.538651
v -0.261516 0.720276 -0.538640
v 0.340765 0.720276 -0.051050
v 0.400331 0.720276 -0.002827
v 0.400391 1.045034 -0.002879
v 0.340819 1.045034 -0.051098
v -0.261516 0.720276 -0.538640
v -0.195331 0.720276 -0.485058
v 0.604101 0.720276 -0.282207
v 0.644198 0.720276 -0.216893
v 0.644138 1.045034 -0.216841
v 0.604046 1.045034 -0.282159
v 0.198680 0.720276 -0.942601
v 0.243231 0.720276 -0.870030
v 0.243216 1.045034 -0.870028
v 0.198669 1.045034 -0.942604
v 0.627789 0.720280 -0.296747
v 0.627734 1.045038 -0.296700
v 0.667826 1.045038 -0.231381
v 0.667885 0.720280 -0.231434
v 0.222368 0.720280 -0.957141
v 0.222357 1.045038 -0.957146
v 0.266904 1.045038 -0.884569
v 0.266920 0.720280 -0.884571
v 0.243216 1.045034 -0.870028
v 0.198669 1.045034 -0.942604
v 0.604046 1.045034 -0.282159
v 0.604101 0.720276 -0.282207
v 0.198669 1.045034 -0.942604
v 0.198680 0.720276 -0.942601
v 0.604101 0.720276 -0.282207
v 0.644198 0.720276 -0.216893
v 0.644138 1.045034 -0.216841
v 0.604046 1.045034 -0.282159
v 0.198680 0.720276 -0.942601
v 0.243231 0.720276 -0.870030
vn -0.4216 0.7762 0.4688
vn 0.5119 0.6496 -0.5622
vn -0.1051 0.6010 -0.7923
vn 0.0707 0.8544 0.5148
vn -0.6238 -0.6495 0.4347
vn -0.6238 0.6496 0.4347
vn -0.7721 0.6009 -0.2068
vn -0.7722 -0.6009 -0.2068
vn 0.5119 -0.6496 -0.5622
vn -0.1050 -0.6008 -0.7925
vn 0.0162 0.5869 0.8095
vn 0.8007 0.5868 0.1210
vn -0.4616 0.8844 -0.0690
vn -0.0086 0.8844 -0.4667
vn 0.7706 0.6016 0.2103
vn 0.5013 0.8544 0.1368
vn 0.5196 0.7762 -0.3572
vn 0.6268 0.6490 -0.4311
vn 0.1087 0.6016 0.7914
vn 0.5195 0.7762 -0.3573
vn -0.8009 0.5866 -0.1198
vn -0.5087 0.6490 0.5657
vn -0.0150 0.5866 -0.8097
vn 0.7706 0.6016 0.2104
vn 0.0161 -0.5868 0.8096
vn 0.8007 -0.5868 0.1209
vn 0.8006 0.5869 0.1211
vn 0.8007 -0.5868 0.1208
vn -0.6237 -0.6496 0.4348
vn 0.5120 -0.6496 -0.5621
vn 0.8006 -0.5868 0.1209
vn -0.4616 0.8844 -0.0691
vn -0.8010 0.5866 -0.1198
vn 0.0706 0.8544 0.5148
vn -0.4216 0.7762 0.4689
vn -0.7721 -0.6009 -0.2067
vn -0.1049 -0.6009 -0.7924
vn 0.7675 0.5864 -0.2590
vn 0.7675 -0.5865 -0.2589
vn 0.2021 -0.6513 -0.7314
vn 0.2022 0.6513 -0.7314
vn -0.7812 0.6000 0.1722
vn -0.7812 -0.6000 0.1722
vn -0.3548 -0.6513 0.6708
vn -0.3548 0.6513 0.6707
vn 0.3805 0.5864 0.7150
vn -0.4500 0.6000 -0.6614
vn -0.3548 -0.6513 0.6707
vn 0.3806 -0.5865 0.7150
vn -0.4500 -0.6001 -0.6613
vn -0.7812 -0.6001 0.1722
vn 0.3806 -0.5864 0.7150
vn 0.7675 -0.5865 -0.2590
vn 0.2022 -0.6513 -0.7314
vn -0.4500 -0.6000 -0.6614
vn 0.2023 -0.6513 -0.7314
vn 0.7675 -0.5864 -0.2589
vn -0.2629 0.5692 -0.7790
vn -0.7258 0.5692 0.3863
vn -0.7259 -0.5692 0.3862
vn -0.2629 -0.5692 -0.7790
vn -0.2629 -0.5692 -0.7791
vn -0.7258 -0.5692 0.3863
vn 0.8119 -0.5775 -0.0854
vn -0.0856 -0.5774 -0.8119
vn -0.0854 0.5773 -0.8121
vn 0.8121 0.5772 -0.0856
vn 0.8120 -0.5774 -0.0855
vn -0.0855 -0.5773 -0.8120
vn -0.0856 0.5773 -0.8120
vn 0.8120 0.5773 -0.0855
vn -0.8119 0.5775 0.0854
vn -0.8121 -0.5772 0.0856
vn 0.0854 -0.5773 0.8121
vn 0.0856 0.5774 0.8119
vn -0.8120 0.5774 0.0855
vn -0.8120 -0.5773 0.0855
vn 0.0855 -0.5773 0.8121
vn 0.0855 0.5774 0.8120
vn -0.0855 0.5773 -0.8120
vn -0.0854 0.5773 -0.8120
vn -0.0856 -0.5774 -0.8120
vn -0.0855 -0.5774 -0.8120
vn 0.8119 -0.5775 -0.0855
vn 0.8121 0.5772 -0.0855
vn -0.7941 0.5773 -0.1899
vn -0.7940 -0.5774 -0.1901
vn -0.1899 -0.5775 0.7940
vn -0.1901 0.5772 0.7942
vn -0.7941 0.5773 -0.1901
vn -0.7940 -0.5774 -0.1900
vn -0.1900 -0.5774 0.7940
vn -0.1901 0.5773 0.7941
vn 0.7942 -0.5773 0.1899
vn 0.1901 -0.5772 -0.7941
vn 0.1899 0.5775 -0.7940
vn 0.7940 0.5774 0.1901
vn 0.7941 -0.5773 0.1900
vn 0.1900 -0.5773 -0.7941
vn 0.1900 0.5774 -0.7941
vn 0.7940 0.5774 0.1900
vn -0.7941 0.5773 -0.1900
vn -0.1900 0.5773 0.7941
vn -0.7941 -0.5774 -0.1900
vn -0.1900 -0.5775 0.7940
vn -0.1900 0.5772 0.7942
vt 0.282425 0.352685
vt 0.278254 0.362727
vt 0.397158 0.362743
vt 0.390218 0.351688
vt 0.618817 0.465575
vt 0.618800 0.362728
vt 0.499896 0.362743
vt 0.499918 0.465590
vt 0.278237 0.465575
vt 0.397137 0.465590
vt 0.888484 0.362691
vt 0.991197 0.362656
vt 0.982882 0.352336
vt 0.896791 0.352365
vt 0.495969 0.330297
vt 0.495971 0.243594
vt 0.386327 0.243592
vt 0.386325 0.330295
vt 0.585120 0.330297
vt 0.585116 0.243594
vt 0.879714 0.352756
vt 0.620637 0.352011
vt 0.614629 0.352686
vt 0.506836 0.351688
vt 0.160277 0.946217
vt 0.208150 0.662023
vt 0.016626 0.662023
vt 0.064500 0.946217
vt 0.161139 0.551710
vt 0.063637 0.551710
vt 0.888494 0.465538
vt 0.991257 0.465503
vt 0.008571 0.362690
vt 0.008561 0.465538
vt 0.409533 0.946217
vt 0.460236 0.650544
vt 0.244516 0.650544
vt 0.295220 0.946217
vt 0.035243 0.243582
vt 0.035235 0.330285
vt 0.122809 0.330290
vt 0.122810 0.243587
vt 0.492349 0.352094
vt 0.404706 0.352094
vt 0.276418 0.352010
vt 0.017340 0.352755
vt 0.694764 0.330293
vt 0.694760 0.243590
vt 0.958280 0.330285
vt 0.958278 0.243582
vt 0.409543 0.528381
vt 0.295209 0.528381
vt 0.915303 0.931529
vt 0.929794 0.933922
vt 0.978625 0.638187
vt 0.964134 0.635794
vt 0.795921 0.513693
vt 0.782283 0.508239
vt 0.733452 0.630340
vt 0.747089 0.635794
vt 0.795921 0.931529
vt 0.915303 0.513693
vt 0.732598 0.638187
vt 0.781429 0.933922
vt 0.915303 0.499005
vt 0.795921 0.499005
vt 0.795921 0.946217
vt 0.915303 0.946217
vt 0.977771 0.630340
vt 0.928940 0.508239
vt 0.487514 0.650482
vt 0.704559 0.650482
vt 0.655727 0.528381
vt 0.536346 0.528381
vt 0.655727 0.946217
vt 0.536346 0.946217
vt 0.554813 0.096324
vt 0.550336 0.123434
vt 0.697866 0.123434
vt 0.693389 0.096324
vt 0.943661 0.127626
vt 0.745205 0.127626
vt 0.749664 0.154630
vt 0.939202 0.154630
vt 0.749664 0.091668
vt 0.745205 0.118672
vt 0.943661 0.118673
vt 0.939202 0.091668
vt 0.697865 0.132388
vt 0.550336 0.132388
vt 0.554813 0.159498
vt 0.693389 0.159498
vt 0.939202 0.082715
vt 0.749664 0.082715
vt 0.740830 0.090209
vt 0.736371 0.117214
vt 0.952494 0.117214
vt 0.948036 0.090209
vt 0.693389 0.087371
vt 0.554813 0.087371
vt 0.545979 0.094865
vt 0.541503 0.121976
vt 0.706699 0.121976
vt 0.702223 0.094866
vt 0.098373 0.175481
vt 0.123060 0.175482
vt 0.123061 0.070872
vt 0.098374 0.070871
vt 0.310989 0.171769
vt 0.338419 0.171769
vt 0.338419 0.067159
vt 0.310989 0.067160
vt 0.064733 0.070873
vt 0.064733 0.175482
vt 0.089420 0.175482
vt 0.089420 0.070872
vt 0.274605 0.067159
vt 0.274606 0.171768
vt 0.302036 0.171769
vt 0.302035 0.067159
vt 0.302036 0.058206
vt 0.274606 0.058206
vt 0.055780 0.070872
vt 0.055780 0.175482
vt 0.265652 0.067160
vt 0.265653 0.171769
vt 0.064733 0.184436
vt 0.089420 0.184435
vt 0.089420 0.061919
vt 0.064733 0.061920
vt 0.274606 0.180722
vt 0.302036 0.180722
vt 0.151914 0.068837
vt 0.151915 0.173446
vt 0.176602 0.173445
vt 0.176601 0.068836
vt 0.414189 0.067159
vt 0.414189 0.171769
vt 0.441619 0.171769
vt 0.441620 0.067160
vt 0.185555 0.173446
vt 0.210242 0.173447
vt 0.210242 0.068837
vt 0.185555 0.068837
vt 0.450572 0.171769
vt 0.478002 0.171768
vt 0.478003 0.067159
vt 0.450573 0.067159
vt 0.478003 0.058206
vt 0.450572 0.058206
vt 0.219195 0.173446
vt 0.219195 0.068837
vt 0.486955 0.171769
vt 0.486957 0.067160
vt 0.185555 0.182399
vt 0.210242 0.182400
vt 0.210242 0.059884
vt 0.185555 0.059883
vt 0.450573 0.180722
vt 0.478002 0.180722
s 1
usemtl DefaultMaterial.003
f 4/1/1 1/2/2 2/3/3
f 2/3/3 3/4/4 4/1/1
f 8/5/5 5/6/6 6/7/7
f 6/7/7 7/8/8 8/5/5
f 1/2/2 9/9/9 10/10/10
f 10/10/10 2/3/3 1/2/2
f 14/11/11 11/12/12 12/13/13
f 12/13/13 13/14/14 14/11/11
f 18/15/15 15/16/16 16/17/17
f 16/17/17 17/18/18 18/15/15
f 15/16/16 18/15/15 19/19/19
f 19/19/19 20/20/4 15/16/16
f 5/6/6 14/11/11 21/21/14
f 21/21/14 22/22/20 5/6/6
f 5/6/6 23/23/20 24/24/16
f 24/24/16 6/7/7 5/6/6
f 28/25/21 25/26/22 26/27/18
f 26/27/18 27/28/23 28/25/21
f 30/29/19 29/30/24 26/27/18
f 26/27/18 25/26/22 30/29/19
f 14/11/11 31/31/25 32/32/26
f 32/32/26 11/12/12 14/11/11
f 1/2/2 33/33/27 34/34/28
f 34/34/28 9/9/9 1/2/2
f 38/35/25 35/36/29 36/37/30
f 36/37/30 37/38/31 38/35/25
f 42/39/32 39/40/33 40/41/23
f 40/41/23 41/42/14 42/39/32
f 5/6/6 8/5/5 31/31/25
f 31/31/25 14/11/11 5/6/6
f 2/3/3 10/10/10 7/8/8
f 7/8/8 6/7/7 2/3/3
f 2/3/3 6/7/7 43/43/16
f 43/43/16 44/44/34 2/3/3
f 17/18/18 16/17/17 41/42/14
f 41/42/14 40/41/23 17/18/18
f 1/2/2 45/45/1 46/46/13
f 46/46/13 33/33/27 1/2/2
f 48/47/22 47/48/35 20/20/4
f 20/20/4 19/19/19 48/47/22
f 50/49/33 49/50/13 47/48/35
f 47/48/35 48/47/22 50/49/33
f 35/36/29 51/51/36 52/52/37
f 52/52/37 36/37/30 35/36/29
f 56/53/38 53/54/39 54/55/40
f 54/55/40 55/56/41 56/53/38
f 60/57/42 57/58/43 58/59/44
f 58/59/44 59/60/45 60/57/42
f 56/53/38 55/56/41 59/60/45
f 59/60/45 61/61/46 56/53/38
f 55/56/41 62/62/47 60/57/42
f 60/57/42 59/60/45 55/56/41
f 59/60/45 63/63/48 64/64/49
f 64/64/49 61/61/46 59/60/45
f 62/62/47 65/65/50 66/66/51
f 66/66/51 60/57/42 62/62/47
f 61/61/46 67/67/52 68/68/53
f 68/68/53 56/53/38 61/61/46
f 55/56/41 69/69/54 70/70/55
f 70/70/55 62/62/47 55/56/41
f 74/71/56 71/72/48 72/73/51
f 72/73/51 73/74/50 74/71/56
f 76/75/49 71/72/48 74/71/56
f 74/71/56 75/76/57 76/75/49
f 80/77/38 77/78/58 78/79/59
f 78/79/59 79/80/46 80/77/38
f 84/81/60 81/82/61 82/83/57
f 82/83/57 83/84/49 84/81/60
f 88/85/38 85/86/58 86/87/59
f 86/87/59 87/88/46 88/85/38
f 92/89/60 89/90/61 90/91/57
f 90/91/57 91/92/49 92/89/60
f 87/88/46 93/93/52 94/94/53
f 94/94/53 88/85/38 87/88/46
f 88/85/38 95/95/39 96/96/62
f 96/96/62 85/86/58 88/85/38
f 86/87/59 97/97/63 98/98/49
f 98/98/49 87/88/46 86/87/59
f 77/78/58 89/90/61 92/89/60
f 92/89/60 78/79/59 77/78/58
f 85/86/58 81/82/61 84/81/60
f 84/81/60 86/87/59 85/86/58
f 79/80/46 99/99/52 100/100/53
f 100/100/53 80/77/38 79/80/46
f 80/77/38 101/101/39 102/102/62
f 102/102/62 77/78/58 80/77/38
f 78/79/59 103/103/63 104/104/49
f 104/104/49 79/80/46 78/79/59
f 108/105/64 105/106/65 106/107/66
f 106/107/66 107/108/67 108/105/64
f 112/109/68 109/110/69 110/111/70
f 110/111/70 111/112/71 112/109/68
f 116/113/72 113/114/73 114/115/74
f 114/115/74 115/116/75 116/113/72
f 120/117/76 117/118/77 118/119/78
f 118/119/78 119/120/79 120/117/76
f 119/120/79 121/121/71 122/122/80
f 122/122/80 120/117/76 119/120/79
f 114/115/74 108/105/64 107/108/67
f 107/108/67 115/116/75 114/115/74
f 116/113/72 123/123/81 124/124/82
f 124/124/82 113/114/73 116/113/72
f 120/117/76 125/125/80 126/126/83
f 126/126/83 117/118/77 120/117/76
f 113/114/73 127/127/82 128/128/84
f 128/128/84 114/115/74 113/114/73
f 115/116/75 129/129/85 130/130/81
f 130/130/81 116/113/72 115/116/75
f 118/119/78 112/109/68 111/112/71
f 111/112/71 119/120/79 118/119/78
f 117/118/77 131/131/83 132/132/68
f 132/132/68 118/119/78 117/118/77
f 136/133/86 133/134/87 134/135/88
f 134/135/88 135/136/89 136/133/86
f 140/137/90 137/138/91 138/139/92
f 138/139/92 139/140/93 140/137/90
f 144/141/94 141/142/95 142/143/96
f 142/143/96 143/144/97 144/141/94
f 148/145/98 145/146/99 146/147/100
f 146/147/100 147/148/101 148/145/98
f 150/149/102 149/150/103 147/148/101
f 147/148/101 146/147/100 150/149/102
f 135/136/89 134/135/88 144/141/94
f 144/141/94 143/144/97 135/136/89
f 152/151/87 151/152/86 142/143/96
f 142/143/96 141/142/95 152/151/87
f 154/153/104 153/154/90 146/147/100
f 146/147/100 145/146/99 154/153/104
f 156/155/105 155/156/87 141/142/95
f 141/142/95 144/141/94 156/155/105
f 158/157/86 157/158/106 143/144/97
f 143/144/97 142/143/96 158/157/86
f 139/140/93 138/139/92 148/145/98
f 148/145/98 147/148/101 139/140/93
f 160/159/92 159/160/91 145/146/99
f 145/146/99 148/145/98 160/159/92
